<?xml version="1.0" encoding="utf-8"?>
<!-- Generator: Adobe Illustrator 19.1.0, SVG Export Plug-In . SVG Version: 6.00 Build 0)  -->
<svg version="1.1" id="Layer_1" xmlns="http://www.w3.org/2000/svg" xmlns:xlink="http://www.w3.org/1999/xlink" x="0px" y="0px"
	 viewBox="0 0 300 300" style="enable-background:new 0 0 300 300;" xml:space="preserve">
<style type="text/css">
	.st0{fill:none;stroke:#000000;stroke-miterlimit:10;}
</style>
<path class="st0" d="M154.7,223.7c0-0.1,0-0.3,0-0.4c1.8,0,3.6,0.1,5.3,0c4.1-0.2,8.3-0.5,12.4-0.5c6,0,11.8-0.8,17.5-2.5
	c6.5-1.9,12.9-4.1,19.5-5.6c2.1-0.5,4.1-1.3,6-2.3c4.3-2.2,8.7-4.4,12.8-7c5.1-3.2,10.1-6.7,15.5-9.3c1.8-0.9,3.1-2.3,3.9-4.1
	c0.9-2,1.9-4.1,2.4-6.3c1.2-5.1,1.7-10.3,1.8-15.5c0.1-3.2-0.5-6.4-2.6-9.1c-2.2-2.8-4.1-5.8-6.6-8.3c-2.3-2.3-3.8-5.1-4.6-8.3
	c-0.7-3-1.8-5.9-2.8-8.8c-0.6-1.7-1.3-3.3-1.8-5c-1.1-3.3-2.8-6.3-4.8-9.1c-1.7-2.4-3.6-4.7-5.2-7.2c-4.5-6.9-10.1-12.8-17-17.5
	c-4.1-2.8-8.2-5.6-12.4-8.4c-5.1-3.5-10.6-6.4-16.4-8.5c-3.9-1.4-7.7-3-11.6-4.5c-4.4-1.8-9-2.9-13.8-3c-2.1,0-4.3-0.3-6.4-0.4
	c-4.8-0.4-9.5-0.6-14.1,1c-1.2,0.4-2.5,0.7-3.8,0.9c-5.4,0.9-10.8,1.8-16.1,2.6c-3.5,0.5-7,1.4-10.2,3c-4.2,2.1-8.4,4.3-12.7,6.5
	c-2.2,1.1-3.8,2.8-5,4.9c-1.4,2.5-3,4.9-4.4,7.3c-1.3,2.1-2.5,4.3-3.7,6.5c-3.1,6-6.2,12-10.2,17.5c-3.6,5-7.1,10.1-9.7,15.7
	c-1.3,2.7-2.8,5.3-4.1,7.9c-1.8,3.4-3.6,6.7-4.9,10.3c-1.7,4.6-3.6,9-5.2,13.6c-0.8,2.1-1.4,4.3-1.8,6.5c-1.1,6.8,2.4,13.4,8.5,16.6
	c1.5,0.7,3,1.4,4.5,2.1c3.6,1.5,7.3,2.9,10.9,4.4c2.8,1.2,5.5,2.9,8.3,4.1c11,4.7,22.2,9,33.9,12c7.9,2.1,15.9,4,24,5
	c4.9,0.6,9.8,1.6,14.8,2.2C148.1,223.1,151.4,223.3,154.7,223.7z"/>
<path class="st0" d="M110,119.5c-1.4,2.5-3,4.9-4.8,7.1c-0.6,0.7-1.5,1.2-2.3,1.6c-1.9,1-3.9,1.9-5.8,2.8c-3.8,1.9-7.6,3.6-11.8,4.2
	c-0.9,0.1-1.9,0.5-2.8,0.7c-0.9,0.2-1.9,0.2-2.8,0.2c-0.7,0-1.4-0.8-1.2-1.5c0.9-3.1,0.7-6.2,0.8-9.3c0-1.3,0.3-2.6,0.6-3.9
	c1.3-6.1,6.3-10.1,12.5-10.4c3.9-0.2,7.6,0.6,11.3,1.6c0.9,0.3,1.8,0.5,2.8,0.7c2.2,0.5,2.7,1.1,2.3,3.4
	C108.3,118.1,109.6,118.2,110,119.5z M106.4,115.5c-4.3-0.9-7.4,1.8-10.8,3.3c0.2,3-1.9,4.9-3.1,7.2c-0.4,0.8-1.4,1-2.2,0.6
	c-2-1-3.1-2.7-3.1-4.9c0-1.6,0.4-3.2,2.1-3.9c1.7-0.6,3.4-1.1,5.2-1.3c2.9-0.4,3.9-0.7,6.7-2.9c-4.3-1.7-8.6-1.6-12.7-0.2
	c-3.6,1.2-6.2,3.6-7,7.6c-0.5,2.6-1.1,5.2-0.9,7.8c0.1,1.2-0.1,2.4-0.1,3.6c0,0.6,0.1,1.1,0.1,1.9c3-0.5,5.8-0.9,8.6-1.7
	c4.8-1.4,8.9-4.1,13.5-6c0.8-0.3,1.6-1.1,2.2-1.8c1.2-1.5,2.4-3,3-4.6C107.3,118.7,106.9,117.3,106.4,115.5z"/>
<path class="st0" d="M196.7,110.4c-0.5,1.8-0.9,3.1-1.4,4.8c1.1,2.1,2.2,4.6,2.6,7.3c0.3,2.1-0.4,3.9-1.4,5.6c-1,1.6-3.4,2-4.9,0.8
	c-0.9-0.6-1.8-1.5-2.2-2.4c-1.1-2.4-2.9-4.3-4.8-6c-2.4-2.1-4.1-4.6-5.7-7.2c-1.6-2.6-2.1-5.5-1.7-8.5c0.2-1.3,1.2-2.5,2.4-2.4
	c2.9,0.3,5.9-0.1,8.7,1.1c5.6,2.5,10.6,5.5,14.1,10.8c1.6,2.5,3.4,4.8,3.9,7.8c0.1,0.8,0,1.5-1,1.7c-1.3-1.4-0.8-3.6-1.8-5.1
	c-0.9-1.4-1.9-2.9-2.9-4.2C199.4,113.1,198.4,111.6,196.7,110.4z M195,126.9c-0.4-1.3-0.9-2.7-1.2-4.1c-0.6-2.3-1.1-4.5-2.4-6.5
	c-1.4-2.3-1.5-4.9-1.2-7.4c0.1-0.7,0.3-1.4,0.5-2c-2.9-2.4-6.2-2.7-9.5-2.7c-1.5,0-2.2,0.7-2.3,2.3c-0.1,2,0.2,4,1.2,5.7
	c1.4,2.4,2.9,4.8,5.1,6.7c2.3,2,4.5,4.1,5.7,7.1c0.3,0.7,1.1,1.3,1.8,1.7C193.5,128,194.4,128,195,126.9z"/>
<path class="st0" d="M124.9,173.2c0.8-0.9,1.4-1.4,1.7-2.1c0.4-1.1,0.5-2.3,0.9-3.4c0.5-1.7,1-3.4,1.7-5c0.3-0.7,0.9-1.4,1.5-1.9
	c1.1-1,2.6-0.5,3.1,0.9c0.1,0.4,0.2,0.9,0.3,1.4c0.3,2.3,0.7,4.6,0.9,7c0.3,2.9,0.5,5.8,0.8,8.8c0.1,0.9,0.4,1.8,0.7,2.7
	c0.1,0.3,0.4,0.5,0.6,0.8c0.3-0.3,0.7-0.5,0.8-0.8c1.1-3,2-6,1.7-9.3c-0.2-2.3,0-4.7,0-7.1c0-1.7,0.5-3.3,1.4-4.7
	c0.7-1.1,1.9-1.4,3-0.7c1.1,0.7,2,1.5,2.5,2.9c0.4,1.3,0.9,2.7,1.5,4c0.7,1.4,1.4,2.7,2.4,3.9c1.1,1.3,2.4,2.3,4.5,1.6
	c0.1-0.8,0.3-1.6,0.2-2.3c-0.7-4.6-0.3-9.2-0.1-13.7c0.1-3.4,0.4-6.8,0.4-10.2c0-2.8-0.5-5.6-0.6-8.4c-0.1-2.2,0-4.5,0-6.7
	c0-2.4,0.1-4.7,0.2-7.1c0-1,0.2-2.1,0.3-3.1c0-0.1,0.4-0.3,0.6-0.3c0.2,0,0.4,0.1,0.6,0.3c0.1,0.2,0.2,0.4,0.2,0.6
	c-0.2,3.9-0.5,7.7-0.7,11.6c-0.1,1.3-0.1,2.6,0.1,3.9c0.8,5.5,0.6,11,0.4,16.6c-0.2,4.3-0.2,8.7-0.2,13c0,1.1,0.3,2.1,0.3,3.2
	c0,1,0,2.1-0.2,3.1c-0.2,1.1-1.3,1.8-2.4,1.6c-1.7-0.3-3.2-0.8-4.4-2.1c-1.4-1.6-2.7-3.2-3.3-5.4c-0.3-1-0.7-2-1.1-3
	c-0.2-0.5-0.5-1.1-0.9-1.5c-0.4-0.4-1-0.8-1.5-0.7c-0.4,0.1-1,0.6-1.1,1.1c-0.3,1-0.6,2.1-0.6,3.1c-0.1,2.5,0,4.9,0,7.4
	c0,1.4,0.1,2.9-0.3,4.2c-0.6,2.3-1.4,4.5-2.2,6.7c-0.4,1.2-1.8,1.3-2.5,0.2c-0.4-0.7-0.8-1.4-1-2.2c-1-3.6-1.5-7.4-1.7-11.1
	c-0.2-2.8-0.3-5.6-1.4-8.6c-0.7,0.5-1.4,0.8-1.6,1.4c-0.6,1.4-1.1,2.8-1.5,4.3c-0.3,1-0.4,2.1-0.7,3.1c-0.2,0.7-0.4,1.4-0.8,1.9
	c-0.7,0.9-1.4,2.1-2.7,2c-1.5-0.2-1.5-1.6-1.8-2.7c-0.2-0.7-0.3-1.4-0.3-2.1c0.2-3.2,0.1-6.4,0.7-9.5c0.8-4.3,2-8.5,3-12.7
	c0.1-0.5,0.3-0.9,0.4-1.4c1-5.3,2.1-10.6,3-15.9c0.3-1.5,0.3-3,0.5-4.5c0.2-1.6,0.5-3.3,0.7-4.9c0-0.2,0.1-0.5,0.1-0.7
	c0-4.3,1.2-8.4,1.4-12.6c0-0.4,0-0.7,0.1-1.1c0.5-2.5,0.9-5.1,0.4-7.7c0-0.2,0.3-0.6,0.6-0.7c0.2,0,0.7,0.3,0.7,0.5
	c0.2,2.1,0.5,4.2,0.1,6.3c-0.3,1.5-0.6,3-0.7,4.5c-0.4,3.5-0.5,7-1,10.5c-1,7.3-1.9,14.7-3.6,21.9c-1.6,6.7-3,13.5-4.5,20.3
	c-0.6,2.7-0.6,5.4-0.3,8.1C124.2,171.3,124.6,172,124.9,173.2z"/>
<path class="st0" d="M172.4,203.1c-0.5,0.9-0.6,1.3-0.8,1.5c-1.7,1.2-3.3,2.5-5.1,3.6c-2.6,1.6-5.3,3.1-8.7,2.7
	c-2.3-0.3-4.6,0.1-7,0.2c-1.4,0.1-2.8,0.2-4.3,0.3c-1.5,0.1-3.1-0.1-4.6,0.2c-3.2,0.6-6.2,0.2-9.2-0.5c-1.7-0.4-3.3-0.7-5-0.5
	c-2,0.3-3.8-0.5-5.7-1.2c-1.6-0.6-3.1-1.4-4.8-1.3c-0.5,0-1-0.2-1.5-0.4c-2.9-1.5-6.1-2.3-9.2-3.1c-2.2-0.6-4.1-1.5-5.7-3.1
	c-1.2-1.1-2.7-1.9-4.2-2.7c-1.4-0.8-2.6-1.6-2.6-3.6c1.2-0.7,2.4-1.6,3.7-2c1.7-0.6,3.4-1.1,4.9-2.2c0.8-0.6,1.9-0.6,2.9-0.9
	c1.8-0.4,3.5-0.9,5.3-1.2c3.4-0.7,6.8-1.3,10.3-2c0.8-0.1,1.6-0.2,2.3-0.4c4-1.2,7.7-0.1,11.2,1.6c1.5,0.7,2.8,1.1,4.4,0.7
	c1-0.2,2.1-0.2,3.1-0.3c1.9-0.2,3.4,0.5,5.1,1.4c4.5,2.7,9,5.6,13.9,7.6c2.3,0.9,4.4,2.3,6.4,3.6C169,202.4,170.3,203.1,172.4,203.1
	z M101.9,194.3c-0.2,0.1-0.5,0.2-0.7,0.3c-0.1,0-0.1,0.2-0.2,0.2c0.2,0,0.5,0.1,0.6,0c0.1-0.2,0.1-0.4,0.1-0.7
	c2.4,0.1,4.9-0.1,7.3,0.8c0.6,0.2,1.3,0.1,1.9,0c1.4-0.3,2.8-0.1,4.2,0.1c3.1,0.5,6.1,1.1,9.3,0.8c2.1-0.2,4.1,0.1,6.2,0.6
	c3.9,0.9,7.8,1.9,11.9,2c2.3,0,4.5,0.8,6.9,0.6c0.5,0,1,0.2,1.5,0.4c3.6,1.3,7.3,1.5,11,2.2c0.3,0.1,0.6-0.2,1.3-0.5
	c-0.9-0.6-1.5-1-2.2-1.3c-4.7-2.5-9.5-4.7-14-7.5c-2.3-1.4-4.3-1.9-6.9-1.3c-2.3,0.5-4.4,0.3-6.7-1c-2.8-1.6-6-2.5-9.3-1.4
	c-0.6,0.2-1.3,0.1-1.9,0.2c-3.6,0.6-7.1,1.3-10.7,2c-1.9,0.4-3.8,0.8-5.7,1.1C104.1,192.3,102.7,192.8,101.9,194.3z M96.4,196.1
	c0.7,0.8,1,1.2,1.4,1.4c1.1,0.7,2.3,1.3,3.2,2.1c2.9,2.6,6.3,3.9,10,5c4.2,1.3,8.6,2,12.7,3.7c1.1,0.5,2.6,0.8,3.8,0.6
	c2.2-0.4,4.1,0.2,6.1,0.7c2.4,0.6,4.8,1.1,7.3,0.6c2.3-0.5,4.6-0.7,7-0.5c0.8,0.1,1.6,0,2.3-0.2c2.4-0.6,4.9-0.7,7.3-0.4
	c3.5,0.4,6.3-1.1,8.8-3.2c0.4-0.4,1.1-0.7,0.7-1.7c-0.4-0.2-0.8-0.5-1.3-0.5c-2.9-0.5-5.9-0.9-8.8-1.4c-1.5-0.3-3-0.8-4.5-1.2
	c-1.1-0.3-2.3-0.9-3.4-0.8c-3.9,0.5-7.7-0.4-11.5-1c-5.8-0.8-11.4-2.5-17.3-2.2c-0.8,0-1.6-0.1-2.3-0.2c-1.7-0.2-3.4-0.6-5-0.5
	c-2.1,0.1-4.1-0.3-6.1-0.7c-1.5-0.3-3-0.8-4.4,0.4c-0.5,0.4-1.5,0.3-2.2,0.3C99,196.5,98.1,196.3,96.4,196.1z"/>
</svg>
