<?xml version="1.0" encoding="utf-8"?>
<!-- Generator: Adobe Illustrator 19.1.0, SVG Export Plug-In . SVG Version: 6.00 Build 0)  -->
<svg version="1.1" id="Layer_1" xmlns="http://www.w3.org/2000/svg" xmlns:xlink="http://www.w3.org/1999/xlink" x="0px" y="0px"
	 viewBox="0 0 300 300" style="enable-background:new 0 0 300 300;" xml:space="preserve">
<style type="text/css">
	.st0{fill:none;stroke:#000000;stroke-miterlimit:10;}
</style>
<g>
	<path class="st0" d="M120.6,242.1c-0.4,0-0.8,0-1.2,0c-0.9-0.1-1.9-0.1-2.8-0.2c-2.2-0.1-4.5-0.3-6.8-0.5c-2.5-0.3-4.8-1.4-7.4-3.5
		c-1.2-1-2.4-2-3.6-2.9c-2.2-1.8-4.5-3.7-6.8-5.6c-5.9-5.2-10.5-11.3-13.6-18.2c-1.1-2.6-1.8-5.4-1.8-8.4
		c-0.1-5.6-1.5-11.2-4.1-17.2c-2.2-5-3.4-9.4-3.8-13.9c-0.2-2.3-0.6-4.7-0.9-7c-0.3-1.9-0.6-3.9-0.8-5.9c-0.2-2.2-0.2-4.5,0-6.8
		c0.5-4.1,1-8.7,1-13.3c0-5.4,1.6-10.5,3.3-15.7c2.3-7.1,4.8-14.2,7.2-21.1c0.9-2.5,1.7-5,2.6-7.4l0.1-0.2c0.3-0.9,0.6-1.8,1.1-2.6
		c1.2-2.1,2.3-4.2,3.4-6.3c3.3-6.5,6.8-13.1,12-18.7c1.8-1.8,4-3.8,7.2-4.6l0.4-0.1c0.6-0.1,1.3-0.3,1.8-0.6
		c2.5-1.7,5.3-2.8,8.1-3.8c2.1-0.8,4.3-1.7,6.4-2.8c1.5-0.8,3.4-1.4,5.3-1.7c1.6-0.2,2.7-1,3.8-2.5l0.2-0.3l0.3,0
		c0.9,0.1,1.8,0.2,2.7,0.2c2,0.2,4.1,0.3,6.1,0.7c3.8,0.8,7.6,0.9,11.5,0.4c8.9-1.1,17.7-0.1,26.2,3.1c5.1,1.9,10.6,3.3,15.8,4.5
		l0.6,0.2c5.9,1.4,10.2,4.3,13.3,8.9c0.7,1,1.5,2,2.6,3.2c3.5,3.8,5.3,8.3,6.4,11.9c2.3,7,3.1,13.7,2.4,20.5l-0.4,3.6
		c-0.7,6.7-1.4,13.7-2.7,20.5c-1.4,7-3.7,14.2-7.1,22c-1.9,4.3-3.9,8.5-5.9,12.7c-1.8,3.8-3.7,7.7-5.4,11.6
		c-1.6,3.6-2.9,7.3-3.9,10.9c-2.5,9.3-7.5,17.6-15.3,25.4c-7.1,7-15.4,13.4-26.3,20.1c-2.9,1.8-6.2,3.2-9.1,4.4
		c-2.7,1.1-5.4,2.1-8.1,3.1c-1.6,0.6-3.2,1.2-4.9,1.8C126.2,241.5,123.3,242.1,120.6,242.1z"/>
</g>
<path class="st0" d="M122.1,84.4c-4.1,7.1-4.2,7.5-10.8,8.4c-4.8,0.6-9.1-1.2-11.2-6.5c-1.4,0.5-2.5,0.9-3.5,1.3
	c0,0.5-0.1,0.9,0,1.1c2.8,4.1,7.2,5.6,11.5,7.2c0.8,0.3,1.8,0.1,2.6-0.1c1.6-0.3,3.1-0.6,4.7-1c2.6-0.6,5.2-1.1,6.7-3.8
	c0.1-0.2,1.1-0.2,1.3,0c0.3,0.3,0.4,1,0.2,1.4c-1.1,2.1-2.4,3.8-5.1,4.2c-2.6,0.3-5.2,1-7.8,1.6c-1.8,0.5-3.5,0.3-5.2-0.5
	c-4.6-2.1-8.8-4.5-12.3-8.2c-2.3-2.4-2.4-3.4,0.1-5.7c1.1-1.1,2.5-1.9,3.8-2.8c1-0.7,2.2-1.1,3.2-1.9c6.2-4.7,15.8-4.8,23.5,1.8
	c0.3,0.2,0.5,0.5,0.7,0.8c0.8,1,0.2,2.2-1.2,2.6C123.2,84.4,122.8,84.4,122.1,84.4z M100.7,82.7c2.3,0.9,3.9-0.3,5.6-0.7
	c1.7-0.3,3.5-0.6,5.3-0.8c1.7-0.2,3.4,0.1,5.4-1c-2.5-2-5-1.7-7.4-1.5C106.3,79,103.3,79.7,100.7,82.7z M107.5,84.6
	c-0.1,1.5,0.8,2,2.1,2.4c0.6-0.7,1.2-1.4,2.3-2.7C110,84.4,108.8,84.5,107.5,84.6z"/>
<path class="st0" d="M193.1,100.8c-0.8,0.6-1.4,1-2,1.4c-3,1.9-7.4,1.9-10.2-0.2c-1.1-0.8-1.7-2.1-1.9-3.5c-0.2-1.9-0.3-3.9-0.4-6.1
	c-1.2-0.3-2.4-0.7-3.8-1.1c-1.3,2.3-0.8,4.3-0.1,6.3c1.1,2.8,2.3,5.6,3.6,8.3c0.4,0.9,1.3,1.7,2.1,2.3c2.4,1.7,4.9,2.9,7.9,3.2
	c0.7,0.1,1.4,0.2,2.1,0.4c-0.5,2-1,2.5-2.3,2.2c-2-0.6-4-1.3-5.9-2.1c-0.8-0.3-1.5-1-2.3-1.4c-1.8-0.8-2.9-2.2-3.5-3.9
	c-1.5-4.1-3.7-7.9-4.2-12.4c-0.1-1-0.8-1.9-1.2-2.9c0.4-1.8,1.5-3.2,3.3-4c1.2,0.3,1.6,2,3.3,1.6c2.7-0.6,5.4,0,8,0.9
	c1,0.3,2,0.6,3.1,0.7c4.6,0.5,7.7,3.2,10.1,6.8c0.8,1.1,1.3,2.4,2,3.5c0.6,1,0.9,1.9,0,2.9c-0.8,0.7-1.7,0.8-2.8-0.3
	C196.8,101.9,195.3,101.1,193.1,100.8z M182.7,91.7c0.9,2.1,1.8,3.7,3.9,3.9c2.5,0.3,4.5,1.4,6.6,2.6c1.3,0.7,2.6,1.4,4.2,1
	C195.1,93.9,188.9,91.6,182.7,91.7z M188.9,98.9c-0.7-1.6-2.4-0.9-3.5-1.5c-1.1-0.6-2.2-1.4-3.3-2.1c-1.3,1-1.1,2.1-0.3,3.1
	c1,1.3,2.3,2.3,4,2.7C187.1,100.7,188.4,100.3,188.9,98.9z"/>
<path class="st0" d="M92.5,210.9c1.3-1.9,2.2-3.8,3.6-5.2c1.9-1.9,4-3.7,6.2-5.3c1.8-1.2,3.9-1,5.8,0.2c0.7,0.5,1.3,0.9,2,1.4
	c1.9,1.5,3.8,2.4,6.4,1.2c1.4-0.7,2.9-0.2,4.1,1c0.9,1,2.1,1.7,3.3,2.4c4.6,2.5,8.4,6.1,12.6,9.2c0.4,0.3,0.8,0.7,1.2,1.1
	c0.5,0.5,0.3,1.6-0.3,1.8c-4.2,1.1-8.4,2.3-12.7,3.3c-1.6,0.4-11-0.4-13-0.8c-3.4-0.6-6.5-2-9.4-3.9c-2.8-1.9-5.8-3.6-8.7-5.4
	C93.3,211.7,93,211.4,92.5,210.9z M129.5,213.9c-0.4-1.6-1.7-2.5-2.9-3.3c-2.8-1.9-5.7-3.7-8.6-5.5c-5.3,1.4-5.5,1.4-10.1-2.1
	c-0.2-0.2-0.4-0.4-0.6-0.5c-1.1-0.9-2.3-1-3.5-0.4c-1.1,0.5-2.1,1.3-3,2c-1,0.7-1.9,1.6-2.8,2.4c-0.3,0.3-0.4,0.7-0.5,1
	c0.3,0.2,0.5,0.4,0.7,0.4c2.2-0.1,4.3-0.3,6.5-0.4c3.3-0.1,6.6,0.3,9.5,2.1c1.6,1,3.5,1.6,5.4,2c2.4,0.5,4.7,1.3,7.1,1.9
	C127.7,213.7,128.7,213.7,129.5,213.9c0.2,0.1,0.3,0.2,0.4,0.4c0.1-0.1,0.1-0.3,0.2-0.4C130,213.9,129.7,213.9,129.5,213.9z
	 M132.7,217.2c-3.8-1.1-7.3-2.2-10.9-3.1c-3.2-0.8-6.3-1.8-9.3-3.2c-1.2-0.6-2.6-1-3.9-1.1c-2.3-0.2-4.7-0.3-7-0.2
	c-1.5,0.1-3.2,0.1-4.8,1.5c2.5,1.8,4.7,3.4,6.9,4.9c3.7,2.5,7.9,3.8,12.4,3.7c1,0,1.9,0,2.9,0.2c4.7,1.3,8.9-0.7,13.2-1.9
	C132.2,218,132.3,217.8,132.7,217.2z"/>
<path class="st0" d="M111.2,181.4c2.5,0.2,4.2,0.2,6,0.4c1,0.1,2.1,0.3,3.1,0.8c2,0.9,2.5,3.3,1.3,5.2c-1.7,2.7-5.1,3.8-7.9,2.5
	c-1.6-0.7-3.1-1.5-4.8-2.4c-0.5,1.1-1,2.1-1.5,3.1c-0.5,1-1,1.9-1.4,2.8c-2.7-0.4-2.7-0.4-5.7-2.9c-1.6,0.7-3.2,1.4-5,2.2
	c-1.3-0.8-2.8-1.5-4-2.5c-0.7-0.6-1.1-2-1-2.9c0.2-2.7,4.2-5,6.5-3.8c2.9,1.5,5.3,3.5,7,6.9c0.8-0.9,1.6-1.5,1.9-2.2
	c0.9-2,1.7-4,2.6-6.1c0.3-0.7,0.6-1.5,0.5-2.1c-0.9-4.9,1.5-9.4,1.7-14.2c0.1-1.2,0.4-2.6,1-3.7c2.5-4.2,3.4-9,4-13.7
	c1-7.3,3.7-13.9,6.2-20.6c1.5-4,3.1-7.9,4.3-12c1.5-5.2,3.8-10,6.3-14.7c1.9-3.5,3.9-7,5.7-10.6c2.3-4.5,4.6-5.8,9.4-5.2
	c4.7,0.6,9.5,1.5,14.2,0.4c1.2-0.3,2.5-0.2,3,1.9c-3.2,0.5-6.2,1.4-9.3,0.9c-2.8-0.4-5.6-0.8-8.4-1.2c-2.8-0.4-4.9,0.6-6.3,3
	c-0.7,1.1-1.3,2.2-1.9,3.4c-2,3.7-4.2,7.3-6.1,11.1c-1.6,3.1-3,6.3-4.2,9.6c-2.6,6.9-4.9,13.9-7.5,20.8c-1.5,4-2.7,8-3.3,12.2
	c-0.8,5.3-1.6,10.6-4.2,15.4c-0.7,1.2-0.8,2.8-1.1,4.2c-0.5,2.5-1.2,5-1.5,7.6C110.8,177,111.1,179,111.2,181.4z M119.7,185.8
	c-2.2-2.1-4.5-1.5-6.8-1.4c-0.8,0-1.7,0.4-1.6,1.6C115.3,189,117.1,189.1,119.7,185.8z M92.5,188c3,2.4,3,2.4,5.3,0.3
	C95.5,185.9,95.5,185.9,92.5,188z"/>
</svg>
