<?xml version="1.0" encoding="utf-8"?>
<!-- Generator: Adobe Illustrator 19.1.0, SVG Export Plug-In . SVG Version: 6.00 Build 0)  -->
<svg version="1.1" id="Layer_1" xmlns="http://www.w3.org/2000/svg" xmlns:xlink="http://www.w3.org/1999/xlink" x="0px" y="0px"
	 viewBox="0 0 300 300" style="enable-background:new 0 0 300 300;" xml:space="preserve">
<style type="text/css">
	.st0{fill:none;stroke:#000000;stroke-miterlimit:10;}
</style>
<path class="st0" d="M175.4,229.9c-3.3-0.9-5.7-1.7-8.1-2.3c-1-0.3-2.1-0.5-3.1-0.5c-2.8,0.2-5.4-0.7-7.8-1.9
	c-1.2-0.6-2.5-1.3-3.8-1.6c-5.5-1-10.8-2.7-16.4-3.3c-0.7-0.1-1.5-0.3-2.2-0.4c-2.5-0.3-5.1-0.8-7.6-0.9c-2.5-0.1-4.7-0.4-7-1.5
	c-3.1-1.5-6.6-2.3-10.1-2.1c-2.1,0.1-4.2,0-6.6,0c0-0.6-0.3-1.5-0.1-2.2c0.8-2,1.4-4.1,3.8-5.3c1.6-0.8,2.7-2.4,4.2-3.5
	c1.4-1.1,2.9-2.1,4.4-3.1c1.1-0.8,2.3-1.5,3.3-2.4c3.2-2.9,7.1-4,11.1-4.6c2.4-0.4,4.5,0.6,6.3,2.1c1.6,1.4,3.2,2.9,4.4,4.6
	c1.7,2.4,3.8,2.7,6.4,2c0.1,0,0.3-0.1,0.4-0.2c4.9-2.6,8.6,0.1,12.2,4.1c2.4,2.7,4.7,5.5,7,8.3c0.8,0.9,1.6,1.8,2.3,2.8
	c2,3,4,6.1,6,9.1C174.6,227.9,174.8,228.6,175.4,229.9z M108.2,210.5c2.7-1.4,5.5-1.6,8.3-2c2.3-0.4,4.5-0.3,6.7,0.2
	c2.5,0.6,5.1,1.2,7.6,1.2c4.6,0.1,8.9,1.6,13.2,3c2.1,0.7,4.4,1.4,6.2,2.7c5.3,3.7,11.5,5.4,17,8.5c0.6,0.3,1.3,0.3,2.7,0.5
	c-1.7-2.6-2.8-4.8-4.3-6.6c-2.6-3.1-5.2-6.3-7.8-9.5c-2.5-3.1-5.9-5.3-10.4-3.6c-0.8,0.3-1.8,0.3-2.7,0.5c-2.5,0.6-4.4,0-5.9-2.2
	c-1-1.4-2.1-2.6-3.2-3.8c-2.3-2.3-4.9-3.5-8.2-2.4c-3.2,1-6.3,2-8.9,4.4c-1,0.9-2.2,1.5-3.4,2.2
	C112.5,205.4,110.4,207.8,108.2,210.5z M163.1,224.3c-1-0.6-2-1.2-3-1.7c-2.3-1.1-4.7-2.1-7-3.3c-2.5-1.3-5-2.6-7.7-3.7
	c-4.5-1.8-9.1-3.3-14-3.5c-1.9-0.1-3.9-0.5-5.8-1c-4-1.1-8.1-0.5-12.1-0.1c-1,0.1-2.1,0.5-2.2,2.1c1.5,0.4,3.1,0.8,4.7,1.2
	c1,0.3,2.2,0.4,3,0.9c2.6,1.6,5.4,1.7,8.3,1.9c4.6,0.4,9.3,1.1,13.9,1.9c2.4,0.4,4.7,1.4,7,1.6c3,0.3,5.5,1.2,8.1,2.6
	C158.3,224.3,160.4,225.2,163.1,224.3z"/>
<path class="st0" d="M179.1,35c-6.7-0.3-13.6,0.7-20.2,3.1c-5.2,1.8-10.4,3.8-15.5,5.7c-3.7,1.4-7.3,3-10.6,5.1
	c-5.7,3.6-11.3,7.1-17,10.7c-2,1.3-3.9,2.6-5.8,4.1c-2.7,2.1-5.2,4.4-7.8,6.7c-0.9,0.8-2.4,1.3-2,3.1c0,0.2-0.4,0.7-0.8,0.8
	c-3.1,0.8-3.6,3.2-3.6,5.8c0,1.6-0.3,3.1-0.9,4.6c-0.3,0.7-0.4,1.5-0.6,2.3c-1.7,8.5-3,17.1-3.8,25.7c-0.2,2.6-0.5,5.2-1.1,7.8
	c-0.9,4-1.5,8-1.7,12.1c-0.3,6.4-0.8,12.9-3.2,19c-1,2.5-0.9,5.2-0.3,7.8c0.9,3.7,0.5,7.3-0.5,10.9c-0.1,0.5-0.3,1-0.5,1.5
	c-1.6,4.7-2.1,9.5-1.6,14.4c0.3,3.3,1.1,6.5,1.6,9.7c0.5,2.6,1.2,5.1,1.4,7.7c0.3,4.7,0.4,9.4-0.5,14.1c-0.8,4-0.1,7.8,2.6,11.1
	c0.7,0.8,1.2,1.7,1.9,2.5c1.7,2.3,3.5,4.6,5.1,7c3,4.5,6.5,8.6,10.3,12.4c2,2,4.2,3.5,6.7,4.7c2.5,1.2,4.9,2.4,7.3,3.8
	c2.4,1.4,4.9,2.6,7.6,3.3c2.3,0.6,4.6,1.2,6.8,1.9c2.2,0.6,4.3,0.8,6.6,0.7c6-0.5,11.6-2.4,16.9-5.1c7.8-4,14.9-9,19.1-17
	c0.2-0.5,0.6-0.9,0.9-1.3c1.4-2.4,3.4-4.3,5.8-5.8c3.7-2.2,6.5-5.3,8.6-9c1.4-2.4,2.6-4.9,4.2-7.2c3.6-5.3,6-11.1,7.6-17.2
	c1.6-6,3.9-11.7,6.4-17.3c2-4.3,3.7-8.7,4.6-13.4c0.7-3.7,1.8-7.4,2.9-11c0.8-2.5,1.3-5,1.1-7.7c-0.2-2.6,0.3-5.2,1.4-7.7
	c1.6-4,3.2-8,3.8-12.4c0.3-1.8,0.9-3.6,1.3-5.4c0.8-3.9,1.6-7.7,2.2-11.6c0.5-3.5,0.6-7.1,1.2-10.6c1.3-7.7,0.1-15.2-2.1-22.5
	c-1.3-4.3-2.5-8.6-3.7-12.9c-1.3-5-2.7-9.9-4.6-14.7c-2-5-5.4-8.6-9.9-11.4c-1.7-1-3.4-1.9-5.1-3C195,36.5,187.6,34.3,179.1,35z"/>
<path class="st0" d="M141.5,102.7c-4.5,2.3-8.7,4.2-13.2,4.8c-5.8,0.8-11.6,1.2-17.4,1.7c-0.6,0.1-1.2,0-1.8-0.2
	c-1-0.2-1.7-1.4-1.7-2.5c0-1.3,1.4-3,2.4-2.9c0.3,0,0.8,0.5,0.9,0.9c0.1,0.7,0,1.4-0.1,2.4c4.8,0,9.5-0.7,14.2-1
	c4.9-0.3,9.1-2.2,13.6-4.1c-1.2-3.7-5.6-3.8-7.2-6.9c-1.9,0.3-3.4,0.7-3.6,2.9c-0.2,2.2-1.6,3.6-3.4,4.6c-1.6,0.9-2.7,2.6-4.8,2.5
	c-0.7,0-1.6-0.1-2.2-0.5c-0.4-0.2-0.7-1-0.7-1.5c0-0.3,0.4-0.9,0.7-1c1.1-0.4,2.4-0.6,3.5-1.2c1-0.5,2.1-1.3,1.7-3
	c-1.2-0.3-1.9,0.7-2.7,1.1c-1,0.4-1.9,0.9-2.8,1.3c-2-1.4-1.4-3.3-1.5-5.1c-1.3-0.8-2.7-0.7-4-0.4c-3,0.6-5.9,1.4-8.9,2.1
	c-0.3,0.1-0.6,0.1-0.9,0c-0.3-0.1-0.5-0.3-0.6-0.6c-0.1-0.2,0-0.7,0.1-0.8c0.8-0.5,1.6-1,2.5-1.2c3.4-0.7,6.9-1.4,10.4-1.8
	c3.2-0.4,6.4-0.6,9.2-2.6c0.7-0.5,1.7-0.7,2.5-1c0.7-0.2,1.4-0.1,2.6-0.2c-1.6-1.8-3.4-2.6-5.1-2.5c-6.9,0.5-13.9,0.9-19.4,5.8
	c-0.8,0.7-1.6,1.5-2.3,2.2c-1,1-2.1,1.7-3.9,1.8c0.2-0.6,0.2-1.4,0.5-1.7c2.6-2.1,5.3-4.2,8.1-6.1c2.4-1.6,5.2-2.6,8.2-2.9
	c2.3-0.3,4.6-0.6,6.8-1c2.2-0.4,4.2,0.1,6.2,1c3.8,1.9,7.1,4.3,9.2,8C138.2,96.3,140.3,99,141.5,102.7z"/>
<path class="st0" d="M190.9,107.6c-0.3,0.8-0.5,1.3-0.7,1.9c3.4,2.4,3.4,2.4,4.1,6.2c1.2,0.4,2.6,0.7,3.9,1.3c1.2,0.5,2.3,1,3.3,1.7
	c0.4,0.3,0.9,1.2,0.8,1.5c-0.5,0.9-1.3,0.6-2,0c-1.7-1.4-3.9-1.4-5.9-2c-3.2-0.9-6.5-1.8-9.7-2.7c-1.8-0.5-3.1-1.6-3.9-3.3
	c-1.1-2.3-2.4-4.5-3.7-6.7c2.5-3.8,5.5-6.5,9.6-7.9c1.2-0.4,2.6-0.6,3.6-1.3c3-2.1,6.3-2.1,9.7-1.8c1.8,0.2,3.3,0.8,4.9,1.6
	c2.9,1.3,5.3,3.5,8.4,4.4c0.4,0.1,0.6,0.9,1,1.6c-5.2,2.3-10.2,3.6-15.7,1.8c0.1,0.6,0.1,1,0.3,1.4c0.7,1.2,0.5,2.1-0.4,3
	c-0.9,0.9-1.9,1.2-3.1,0.9c-0.8-0.2-1.5-0.6-2.3-0.8C192.5,108,191.8,107.8,190.9,107.6z M208.5,101.2c-1.9-1.8-3.8-3.3-6-4.1
	c-2.6-0.9-5.3-1.5-8.1-0.4c-2.6,1-5.1,1.9-7.6,3c-0.5,0.2-0.7,0.8-1.2,1.3c1.9,0.9,3.4,0.5,5,0.1c3-0.8,6.1-1.1,9,0.4
	C202.6,103.1,205.5,102,208.5,101.2z M180.2,106.8c0.7,1.3,1.4,2.7,2.2,4.1c1.1,2.1,2.7,3,5.3,2.9c0.4-3.6-0.9-6.9-1.5-10.1
	C183.2,103.2,181.1,103.6,180.2,106.8z"/>
<path class="st0" d="M130.8,177.7c1.3,1.7,2.6,1.5,3.7,1c2.5-1.1,5-0.7,7.5-0.6c1.6,0,2.8,0.9,3.8,2.1c0.9,1.1,1.4,2.3,0.7,3.8
	c-2.1,1-4,0.2-6.1-0.1c-2.1-0.3-3.5-1.4-4.7-2.8c-2.6-0.4-5.2,0.2-7.5-0.8c-0.1-0.5-0.3-0.9-0.2-1c1.5-2.8,2.5-5.7,3.2-8.8
	c0.4-1.7,1.4-3.3,2-5c1.8-5.7,3.7-11.4,5.2-17.2c0.8-2.9,1.6-5.8,3.1-8.4c1.3-2.3,1.9-4.7,2.4-7.2c1-5.5,2.8-10.7,6-15.4
	c1.5-2.3,2.6-4.6,3.4-7.3c1.1-3.7,2.7-7.3,3.5-11.1c0.2-0.9,0.6-1.7,1.2-2.4c3.4-4.7,6.9-9.4,10.4-14.1c0.8-1,1.7-1.6,2.9-2
	c2.7-0.8,5.4-1.6,8.1-2.5c1.5-0.5,2.9-0.9,4.3,0.1c0.3,0.2,0.4,0.7,0.4,1.1c0,0.2-0.4,0.5-0.6,0.5c-4.1-0.7-7.5,1.8-11.3,2.4
	c-1.3,0.2-2.4,1.1-3.2,2.3c-3.1,4.4-6.4,8.7-9.4,13.2c-0.8,1.2-1.3,2.7-1.8,4.1c-1.3,4.1-2.5,8.3-3.9,12.4c-0.6,1.7-1.7,3.1-2.7,4.7
	c-2.8,4.3-4.6,9.1-5.4,14.2c-0.5,3-1.2,5.9-2.9,8.4c-1.5,2.3-2.3,4.9-3,7.5c-1.3,4.9-2.7,9.8-4,14.7c-0.2,0.6-0.4,1.1-0.6,1.7
	C133.7,169.3,132.3,173.5,130.8,177.7z M144.5,182.1c-1.7-2.5-2.6-2.7-5.6-1.4C142.3,182.3,142.3,182.3,144.5,182.1z"/>
</svg>
