<?xml version="1.0" encoding="utf-8"?>
<!-- Generator: Adobe Illustrator 19.1.0, SVG Export Plug-In . SVG Version: 6.00 Build 0)  -->
<svg version="1.1" id="Layer_1" xmlns="http://www.w3.org/2000/svg" xmlns:xlink="http://www.w3.org/1999/xlink" x="0px" y="0px"
	 viewBox="0 0 300 300" style="enable-background:new 0 0 300 300;" xml:space="preserve">
<style type="text/css">
	.st0{fill:none;stroke:#000000;stroke-miterlimit:10;}
</style>
<path class="st0" d="M143.3,161.5c0.3,0,0.5,0,0.6,0c4.7-4.5,11-4.3,16.7-5.8c1.1-0.3,2.5,0.1,3.7,0.3c1,0.2,1.8,0.8,1.9,1.8
	c0.3,2.3,0.9,4.7,0.8,7c-0.1,2.9-2,4.9-4.5,5.3c-1.4,0.2-2.6-0.1-3.4-1.2c-0.8-1.1-1.5-2.4-2.2-3.5c-0.1-2.5,2.2-4.3,1.6-7.1
	c-4.4,0.6-8.8,0.8-12.3,4.2c-1.9,1.9-3.2,3.8-3.3,6.5c-0.2,2.5-0.4,5-0.7,7.5c-0.2,1.4-0.4,2.8-0.7,4.4c-1.3,0.2-2.5,0.5-3.7,0.6
	c-1.9,0.2-3.4-0.6-4.3-2.3c-1-1.9-1.9-4-2.7-6c-0.5-1.3-0.8-2.7-1.4-4c-0.4-1-1.5-1.3-2.4-1c-0.6,0.2-1.4,0.9-1.6,1.5
	c-0.4,1.3-0.4,2.8-0.6,4.2c-0.2,1.4-0.8,2.4-2.3,2.7c-1.4,0.3-2.7-0.5-3.4-2c-1.2-2.3-0.9-3.5,0.9-5.5c2.7-3,5.9-4,10.2-2.8
	c0.4,0.9,0.8,2,1.3,3.2c1,2.7,1.9,5.3,2.9,8c0.5,1.2,1.4,2.1,2.9,2.1c1.7,0,2.7-0.7,3-2.3c0.1-0.6,0.2-1.2,0.2-1.9
	c0.4-6,0.8-11.9,0.5-17.9c-0.4-8.4-0.5-16.7,1.5-25c1.1-4.5,1.2-9.1,1.4-13.6c0.2-4.9,0.4-9.8,0.7-14.7c0.2-2.6-0.3-5-1.4-7.3
	c-1.6-3.2-3.3-6.5-6-9c-0.2-0.2-0.5-0.4-0.6-0.7c-0.1-0.4,0-0.9,0-1.3c0.4,0,1.1-0.1,1.3,0.1c1.7,2.1,3.3,4.2,4.8,6.4
	c0.9,1.3,1.5,2.8,2.2,4.2c1.6,3.2,2.2,6.4,1.7,10.1c-0.6,4.8-0.8,9.8-0.9,14.6c-0.2,5.1-1,10-1.9,15c-1.4,7.8-1.3,15.7-1,23.6
	C142.9,160.4,143.1,161,143.3,161.5z"/>
<path class="st0" d="M144.4,205c0.5-0.3,1.1-0.6,1.7-1c2.8-2.3,5.8-2.1,9.1-1c5.8,1.9,11.6,3.6,17.7,4.5c3.7,0.6,7.2,2,10.8,3.1
	c0.4,0.1,0.5,1.1,0.9,2c-1.1,0.1-1.8,0.2-2.5,0.2c-2-0.1-3.6,0.7-4.6,2.3c-2.4,3.8-5.9,6.1-9.6,8.4c-3,1.9-5.9,3.9-9,5.8
	c-1.2,0.7-2.6,1.2-3.9,1.7c-4.1,1.4-7.8,3.7-12.2,4.2c-4.1,0.5-8.1,0.2-12.1-1.4c-4.2-1.6-8.3-3.4-13-2.9c-1,0.1-2-0.5-3-0.7
	c-0.9-1.8-0.3-3.4,0.4-4.8c2.6-5.7,5.4-11.3,9-16.5c2.5-3.5,6-5.6,9.6-7.6c2.4-1.4,4.9,0,6.9,1.7C141.6,204,142.7,204.9,144.4,205z
	 M144.8,207.9c-2.5-0.3-4-1.4-5.5-2.7c-1.7-1.5-3.8-2.2-5.9-0.9c-2.1,1.3-4.3,2.7-5.9,4.5c-3.7,4.3-6.8,9-8.7,14.9
	c5.3,0.3,10-2.1,15.1-1.3c2.2-1.3,4.1-3.4,7.2-2.6c0.5,0.1,1.4-0.4,1.9-0.8c1.5-1.2,3.2-1.4,4.9-2c3.4-1.2,7.1-1.2,10.5-2.3
	c4.8-1.6,9.7-2.5,14.7-2.7c0.8,0,1.6-0.3,3.7-0.7c-2-0.7-2.8-1.1-3.6-1.3c-5.1-0.8-10.3-1.5-15.1-3.6c-1.1-0.5-2.4-0.6-3.6-1
	c-2.5-0.7-5-0.6-7.2,0.9C146.4,206.8,145.7,207.3,144.8,207.9z M174,214.9c-3-0.6-5.3-0.1-7.5,0.3c-4.4,0.9-8.8,1.7-13.2,2.8
	c-3.1,0.8-6.2,1.7-9.1,3.1c-3.4,1.6-7.4,1.4-10.4,3.8c-0.1,0.1-0.4,0.1-0.5,0.1c-3.8-0.4-7.3,1.3-11.1,1.3c-0.7,0-1.5,0.7-2.9,1.4
	c1.5,0.5,2.3,0.7,3.1,0.9c2.9,0.9,5.9,1.5,8.7,2.7c4.7,1.9,9.4,2.4,14.2,0.9c3.6-1.1,7.2-2.4,10.5-4.2c4.7-2.5,9.2-5.5,13.7-8.4
	C171.1,218.6,172.7,217.5,174,214.9z"/>
<path class="st0" d="M100.2,92.9c-4.6-0.4-6.1,3.6-9.2,4.8c-1.1-0.1-1.4-0.8-1.5-1.8c-0.3-2.3,0.3-4.2,1.9-5.9
	c1.1-1.2,2.1-2.5,3.2-3.6c2.3-2.2,4.9-3.7,8.2-2.7c0.5,0.1,1.1,0.4,1.6,0.4c6.3-0.6,11.4,2.4,17.1,5.1c0.1,2.4,0.3,4.9,0.2,7.4
	c0,1-0.8,1.9-1.4,2.8c-1.2,1.8-2.5,3.6-3.9,5.1c-1.4,1.6-3.1,3-4.8,4.3c-2.6,1.9-4.9,4.1-6.6,7c-2.5,4.1-5.9,5.5-10.5,4.4
	c-3.6-0.8-6.5-2.9-9.3-5.2c-0.2-0.2-0.2-1.1,0.1-1.4c0.3-0.3,1-0.5,1.4-0.4c0.7,0.2,1.2,0.8,1.8,1.1c1.9,1,3.7,2.2,5.7,2.9
	c3.7,1.2,6.7,0.2,8.9-3c2.4-3.4,5-6.5,8.7-8.6c1.2-0.7,2.1-1.9,3-3c1.4-1.6,2.6-3.4,3.9-5.1c1.2-1.5,1.2-2.9-0.1-4.5
	c-2.9,0.1-5.9,0.2-8.9,0.3c-0.2,2.7,0.1,5.5-0.7,7.9c-2.7,7.5-7.5,11.1-15.1,8.7c-3-1-4.9-3.7-4.5-7c0-0.4,0.7-1.2,0.9-1.2
	c2.3,0.5,3.7-1.2,5.4-2c1.7-0.8,2.7,0.3,4,0.6c0.8,0.2,1.8-0.9,1.6-1.7c-0.4-1-1-1.9-1.2-2.9C99.8,95,100.1,94.1,100.2,92.9z
	 M95.8,90.8c-0.3,0.1-0.6,0.1-1,0.2C95.1,90.9,95.4,90.8,95.8,90.8c4.5-1.1,9.1-0.8,13.7-0.2c2.1,0.3,4.2,0.4,6.1-0.7
	c-0.2-0.5-0.3-0.9-0.6-1c-4.5-2.7-9.6-2.2-14.5-2.7c-2.2-0.2-4.2,1-5,3.2C95.4,89.8,95.7,90.3,95.8,90.8z"/>
<path class="st0" d="M187.7,101.7c-1.6,0.6-2.1,1.5-1.5,2.6c0.9,1.8,1.9,3.4,3,5.1c0.7,1,1.7,1.9,2.3,3c2,3.4,5.2,4.4,8.7,4.1
	c4.3-0.4,8.5-1.1,11.5-4.8c2.1-2.6,5.4-3.4,8.3-4.9c0.4-0.2,1.1,0.5,1.7,0.7c-0.3,0.6-0.5,1.5-0.9,1.6c-4.1,1.5-7.7,3.8-10.7,6.9
	c-1.2,1.2-2.5,1.9-4.3,1.8c-1.4-0.1-2.8,0.6-4.2,0.8c-4.9,0.5-9.3-0.3-12.1-5c-1.3-2.1-2.8-4.2-4.4-6.1c-1-1.1-2.4-1.9-3.8-3
	c0.5-1.1,0.9-2.3,1.6-3.3c1.1-1.6,2.5-3,3.7-4.6c4.7-6.6,11.5-9.5,19.1-10.8c2.7-0.5,5.7,0.3,8.5,0.6c0.5,0.1,1.2,1,1.1,1.5
	c0,0.4-0.8,1.2-1.3,1.3c-6,0.7-6.1,0.6-5.3,6.6c0.3,2.8,0,5.3-1.9,7.5c-1,1.2-2.1,1.9-3.5,2.4C197.1,107.7,191.7,107,187.7,101.7z
	 M205.1,91.7c-3.7,1.7-3.7,1.7-3.4,4.8c0.1,1,0,2.1,0,3.2c-0.1,1.8,1,2.4,2.4,2.8C207.8,99,206.5,95.4,205.1,91.7z"/>
<path class="st0" d="M89.1,209.1c2,8.7,3.7,17,5.9,25.1c3.4,12.6,10.5,22.4,22.9,27.6c1,0.4,2,0.9,2.9,1.3c5,2.3,10.3,3.5,15.7,2.9
	c7.1-0.9,14.2-2.4,21.2-3.8c4.9-1,8.8-3.9,13.1-6.2c9.4-5.1,18.2-10.9,25.5-18.7c8-8.5,15.9-17.2,23.5-26c6.9-8,11.6-17.4,13.7-27.8
	c2.3-11.3,3.8-22.7,4.2-34.2c0.4-10.8,0.1-21.5,1.5-32.3c0.7-5.3,0.1-10.8-1.8-15.9c-0.5-1.3-0.8-2.8-1.2-4.1
	c-1.6-5.7-2.8-11.5-4.7-17.1c-4-11.5-8.2-23-12.5-34.4c-2.3-6-6-11.1-11.3-14.8c-6.6-4.5-13.6-8-21.3-10.2
	c-6.9-1.9-13.5-1.7-19.8,1.7c-1.3,0.7-2.6,1.3-4,1c-2.7-0.6-5.2,0.7-7,2c-4.2,3.2-8.7,5.7-13.1,8.4c-1.5,0.9-3.1,2-4.1,3.4
	c-2.4,3.2-5.6,5.1-8.9,6.8c-6.6,3.3-12.3,8-18.8,11.3c-0.2,0.1-0.3,0.2-0.4,0.3c-2.4,1.9-4.9,3.5-7.9,4.6c-3.8,1.4-6.8,3.9-9.1,7.3
	c-1.9,2.8-3.9,5.6-5.8,8.4c-2.6,3.7-4.6,7.7-5.9,12c-1.6,5-3.1,9.9-4.6,14.9c-1,3.1-1.5,6.2-1.3,9.5c0.5,11.7,1,23.3,1.3,35
	c0.2,8.2,1.6,16,4,23.8c1.8,5.8,3.3,11.8,4.6,17.7C86.8,195.8,87.9,202.7,89.1,209.1z"/>
</svg>
